HIERARCHY
ROOT Hips
{
  OFFSET 5.80788e-005 67.184 3.4734
  CHANNELS 6 Xposition Yposition Zposition Zrotation Xrotation Yrotation
  JOINT Chest
  {
    OFFSET 0 8.7983 -4.7612
    CHANNELS 6 Xposition Yposition Zposition Zrotation Xrotation Yrotation
    JOINT Chest2
    {
      OFFSET 0 8.0291 0.4195
      CHANNELS 6 Xposition Yposition Zposition Zrotation Xrotation Yrotation
      JOINT Chest3
      {
        OFFSET 0 9.9351 -2.2114
        CHANNELS 6 Xposition Yposition Zposition Zrotation Xrotation Yrotation
        JOINT Neck
        {
          OFFSET 0 22.3885 -0.4656
          CHANNELS 6 Xposition Yposition Zposition Zrotation Xrotation Yrotation
          JOINT Head
          {
            OFFSET -0.0001 12.643 3.4389
            CHANNELS 6 Xposition Yposition Zposition Zrotation Xrotation Yrotation
            End Site
            {
              OFFSET 0.0001 17.6655 0.5274
            }
          }
        }
        JOINT LeftCollar
        {
          OFFSET 2.2603 21.606 7.4023
          CHANNELS 6 Xposition Yposition Zposition Zrotation Xrotation Yrotation
          JOINT LeftShoulder
          {
            OFFSET 13.5163 -1.1332 -5.0146
            CHANNELS 6 Xposition Yposition Zposition Zrotation Xrotation Yrotation
            JOINT LeftElbow
            {
              OFFSET -0.0995 -28.05 -0.2431
              CHANNELS 6 Xposition Yposition Zposition Zrotation Xrotation Yrotation
              JOINT LeftWrist
              {
                OFFSET 0.0679 -23.3996 -0.1402
                CHANNELS 6 Xposition Yposition Zposition Zrotation Xrotation Yrotation
                JOINT LeftFinger1
                {
                  OFFSET 0.7932 -9.069 2.5189
                  CHANNELS 6 Xposition Yposition Zposition Zrotation Xrotation Yrotation
                  JOINT LeftFinger11
                  {
                    OFFSET -0.8272 -3.3923 0.5977
                    CHANNELS 6 Xposition Yposition Zposition Zrotation Xrotation Yrotation
                    JOINT LeftFinger12
                    {
                      OFFSET -0.5649 -2.3158 0.4082
                      CHANNELS 6 Xposition Yposition Zposition Zrotation Xrotation Yrotation
                      End Site
                      {
                        OFFSET -0.4919 -1.6479 0.2673
                      }
                    }
                  }
                }
                JOINT LeftFinger2
                {
                  OFFSET 0.9159 -9.2044 0.2193
                  CHANNELS 6 Xposition Yposition Zposition Zrotation Xrotation Yrotation
                  JOINT LeftFinger21
                  {
                    OFFSET 0.0117 -4.1944 -0.0248
                    CHANNELS 6 Xposition Yposition Zposition Zrotation Xrotation Yrotation
                    JOINT LeftFinger22
                    {
                      OFFSET 0.0071 -2.3249 -0.0142
                      CHANNELS 6 Xposition Yposition Zposition Zrotation Xrotation Yrotation
                      End Site
                      {
                        OFFSET -0.1475 -2.0882 0.0028
                      }
                    }
                  }
                }
                JOINT LeftFinger3
                {
                  OFFSET 0.6113 -8.7231 -2.0637
                  CHANNELS 6 Xposition Yposition Zposition Zrotation Xrotation Yrotation
                  JOINT LeftFinger31
                  {
                    OFFSET -0.1927 -3.8059 -0.2383
                    CHANNELS 6 Xposition Yposition Zposition Zrotation Xrotation Yrotation
                    JOINT LeftFinger32
                    {
                      OFFSET -0.1091 -2.1688 -0.1362
                      CHANNELS 6 Xposition Yposition Zposition Zrotation Xrotation Yrotation
                      End Site
                      {
                        OFFSET -0.2358 -1.9176 -0.0906
                      }
                    }
                  }
                }
                JOINT LeftFinger4
                {
                  OFFSET -0.6151 -8.0947 -3.5641
                  CHANNELS 6 Xposition Yposition Zposition Zrotation Xrotation Yrotation
                  JOINT LeftFinger41
                  {
                    OFFSET -0.4882 -2.341 -0.6462
                    CHANNELS 6 Xposition Yposition Zposition Zrotation Xrotation Yrotation
                    JOINT LeftFinger42
                    {
                      OFFSET -0.3575 -1.7167 -0.4742
                      CHANNELS 6 Xposition Yposition Zposition Zrotation Xrotation Yrotation
                      End Site
                      {
                        OFFSET -0.4187 -1.5237 -0.3496
                      }
                    }
                  }
                }
                JOINT LeftFinger0
                {
                  OFFSET -1.42 -1.8761 1.4223
                  CHANNELS 6 Xposition Yposition Zposition Zrotation Xrotation Yrotation
                  JOINT LeftFinger01
                  {
                    OFFSET -1.1471 -3.4929 2.6334
                    CHANNELS 6 Xposition Yposition Zposition Zrotation Xrotation Yrotation
                    JOINT LeftFinger02
                    {
                      OFFSET -0.823 -2.3 1.6571
                      CHANNELS 6 Xposition Yposition Zposition Zrotation Xrotation Yrotation
                      End Site
                      {
                        OFFSET -0.5822 -1.6914 1.1582
                      }
                    }
                  }
                }
              }
            }
          }
        }
        JOINT RightCollar
        {
          OFFSET -2.2603 21.606 7.4023
          CHANNELS 6 Xposition Yposition Zposition Zrotation Xrotation Yrotation
          JOINT RightShoulder
          {
            OFFSET -13.5187 -1.1334 -5.0155
            CHANNELS 6 Xposition Yposition Zposition Zrotation Xrotation Yrotation
            JOINT RightElbow
            {
              OFFSET 0.0994 -28.0499 -0.2431
              CHANNELS 6 Xposition Yposition Zposition Zrotation Xrotation Yrotation
              JOINT RightWrist
              {
                OFFSET -0.0679 -23.3996 -0.1402
                CHANNELS 6 Xposition Yposition Zposition Zrotation Xrotation Yrotation
                JOINT RightFinger1
                {
                  OFFSET -0.7932 -9.0691 2.5189
                  CHANNELS 6 Xposition Yposition Zposition Zrotation Xrotation Yrotation
                  JOINT RightFinger11
                  {
                    OFFSET 0.8272 -3.3923 0.5977
                    CHANNELS 6 Xposition Yposition Zposition Zrotation Xrotation Yrotation
                    JOINT RightFinger12
                    {
                      OFFSET 0.565 -2.3158 0.4082
                      CHANNELS 6 Xposition Yposition Zposition Zrotation Xrotation Yrotation
                      End Site
                      {
                        OFFSET 0.4919 -1.6479 0.2673
                      }
                    }
                  }
                }
                JOINT RightFinger2
                {
                  OFFSET -0.916 -9.2044 0.2193
                  CHANNELS 6 Xposition Yposition Zposition Zrotation Xrotation Yrotation
                  JOINT RightFinger21
                  {
                    OFFSET -0.0117 -4.1944 -0.0248
                    CHANNELS 6 Xposition Yposition Zposition Zrotation Xrotation Yrotation
                    JOINT RightFinger22
                    {
                      OFFSET -0.0071 -2.3249 -0.0142
                      CHANNELS 6 Xposition Yposition Zposition Zrotation Xrotation Yrotation
                      End Site
                      {
                        OFFSET 0.1475 -2.0882 0.0028
                      }
                    }
                  }
                }
                JOINT RightFinger3
                {
                  OFFSET -0.6113 -8.7231 -2.0637
                  CHANNELS 6 Xposition Yposition Zposition Zrotation Xrotation Yrotation
                  JOINT RightFinger31
                  {
                    OFFSET 0.1927 -3.8059 -0.2383
                    CHANNELS 6 Xposition Yposition Zposition Zrotation Xrotation Yrotation
                    JOINT RightFinger32
                    {
                      OFFSET 0.1091 -2.1688 -0.1362
                      CHANNELS 6 Xposition Yposition Zposition Zrotation Xrotation Yrotation
                      End Site
                      {
                        OFFSET 0.2358 -1.9176 -0.0906
                      }
                    }
                  }
                }
                JOINT RightFinger4
                {
                  OFFSET 0.6151 -8.0947 -3.564
                  CHANNELS 6 Xposition Yposition Zposition Zrotation Xrotation Yrotation
                  JOINT RightFinger41
                  {
                    OFFSET 0.4882 -2.341 -0.6462
                    CHANNELS 6 Xposition Yposition Zposition Zrotation Xrotation Yrotation
                    JOINT RightFinger42
                    {
                      OFFSET 0.3574 -1.7166 -0.4742
                      CHANNELS 6 Xposition Yposition Zposition Zrotation Xrotation Yrotation
                      End Site
                      {
                        OFFSET 0.4187 -1.5237 -0.3496
                      }
                    }
                  }
                }
                JOINT RightFinger0
                {
                  OFFSET 1.4199 -1.8761 1.4221
                  CHANNELS 6 Xposition Yposition Zposition Zrotation Xrotation Yrotation
                  JOINT RightFinger01
                  {
                    OFFSET 1.1472 -3.4929 2.6336
                    CHANNELS 6 Xposition Yposition Zposition Zrotation Xrotation Yrotation
                    JOINT RightFinger02
                    {
                      OFFSET 0.8229 -2.3 1.6571
                      CHANNELS 6 Xposition Yposition Zposition Zrotation Xrotation Yrotation
                      End Site
                      {
                        OFFSET 0.5822 -1.6914 1.1582
                      }
                    }
                  }
                }
              }
            }
          }
        }
      }
    }
  }
  JOINT RightHip
  {
    OFFSET -9.412 3.9771 -0.7758
    CHANNELS 6 Xposition Yposition Zposition Zrotation Xrotation Yrotation
    JOINT RightKnee
    {
      OFFSET -0.7531 -40.938 0
      CHANNELS 6 Xposition Yposition Zposition Zrotation Xrotation Yrotation
      JOINT RightAnkle
      {
        OFFSET 0 -40.1986 0
        CHANNELS 6 Xposition Yposition Zposition Zrotation Xrotation Yrotation
        JOINT RightToe
        {
          OFFSET 0 -4.4182 9.239
          CHANNELS 6 Xposition Yposition Zposition Zrotation Xrotation Yrotation
          End Site
          {
            OFFSET 0 0 6.1981
          }
        }
      }
    }
  }
  JOINT LeftHip
  {
    OFFSET 9.4119 3.9773 -0.7758
    CHANNELS 6 Xposition Yposition Zposition Zrotation Xrotation Yrotation
    JOINT LeftKnee
    {
      OFFSET 0.7532 -40.9383 0
      CHANNELS 6 Xposition Yposition Zposition Zrotation Xrotation Yrotation
      JOINT LeftAnkle
      {
        OFFSET 0 -40.1986 0
        CHANNELS 6 Xposition Yposition Zposition Zrotation Xrotation Yrotation
        JOINT LeftToe
        {
          OFFSET 0 -4.4182 9.239
          CHANNELS 6 Xposition Yposition Zposition Zrotation Xrotation Yrotation
          End Site
          {
            OFFSET 0 0 6.1981
          }
        }
      }
    }
  }
}
MOTION
Frames:	4
Frame Time:	0.0333333
5.80788e-005 67.184 3.4734 0 0 -0 0 8.7983 -4.7612 0 0 -0 0 8.0291 0.4195 0 0 -0 0 9.9351 -2.2114 0 0 -0 0 22.3885 -0.4656 0 0 -0 -0.0001 12.643 3.4389 0 0 -0 2.2603 21.606 7.4023 0 0 -12.5014 13.5163 -1.1332 -5.0146 88.1196 14.2451 10.6914 -0.0995 -28.05 -0.2431 -0.00160068 -0.00239207 0.000740045 0.0679 -23.3996 -0.1402 -8.4365e-005 7.00714e-005 -9.52055e-007 0.7932 -9.069 2.5189 9.93923e-017 -1.98785e-016 -1.59028e-015 -0.8272 -3.3923 0.5977 9.93923e-017 -5.96354e-016 -1.59028e-015 -0.5649 -2.3158 0.4082 -9.93923e-017 -5.96354e-016 -1.59028e-015 0.9159 -9.2044 0.2193 9.93923e-017 -1.98785e-016 -1.59028e-015 0.0117 -4.1944 -0.0248 -0.0128176 0.00232552 8.52707e-005 0.0071 -2.3249 -0.0142 9.93923e-017 5.96354e-016 -0 0.6113 -8.7231 -2.0637 9.93923e-017 -1.98785e-016 -1.59028e-015 -0.1927 -3.8059 -0.2383 -0.0160551 0.00299681 0.000857156 -0.1091 -2.1688 -0.1362 -2.48481e-016 0 3.18055e-015 -0.6151 -8.0947 -3.5641 9.93923e-017 -1.98785e-016 -1.59028e-015 -0.4882 -2.341 -0.6462 -0.0125865 0.0031206 0.00282719 -0.3575 -1.7167 -0.4742 0 1.98785e-016 -0 -1.42 -1.8761 1.4223 9.93923e-017 -1.98785e-016 -1.59028e-015 -1.1471 -3.4929 2.6334 9.93923e-017 -5.96354e-016 -1.59028e-015 -0.823 -2.3 1.6571 -9.93923e-017 -5.96354e-016 -1.59028e-015 -2.2603 21.606 7.4023 -0.865644 0.16582 7.03859 -13.5187 -1.1334 -5.0155 -88.0329 10.2057 -10.5567 0.0994 -28.0499 -0.2431 0.0015593 -0.00248883 -0.000788628 -0.0679 -23.3996 -0.1402 7.87605e-005 4.10553e-005 1.24965e-005 -0.7932 -9.0691 2.5189 -3.97569e-016 -7.95139e-016 3.18055e-015 0.8272 -3.3923 0.5977 -1.98785e-016 -3.97569e-016 3.18055e-015 0.565 -2.3158 0.4082 -1.98785e-016 0 3.18055e-015 -0.916 -9.2044 0.2193 -3.97569e-016 -7.95139e-016 3.18055e-015 -0.0117 -4.1944 -0.0248 0.0129473 0.00231697 -8.70038e-005 -0.0071 -2.3249 -0.0142 9.93923e-017 -7.95139e-016 1.59028e-015 -0.6113 -8.7231 -2.0637 -3.97569e-016 -7.95139e-016 3.18055e-015 0.1927 -3.8059 -0.2383 0.0163314 0.00303369 -0.000872333 0.1091 -2.1688 -0.1362 3.97569e-016 7.95139e-016 -3.18055e-015 0.6151 -8.0947 -3.564 -3.97569e-016 -7.95139e-016 3.18055e-015 0.4882 -2.341 -0.6462 0.0145763 0.00367772 -0.00326275 0.3574 -1.7166 -0.4742 9.93923e-017 -3.97569e-016 -0 1.4199 -1.8761 1.4221 -3.97569e-016 -7.95139e-016 3.18055e-015 1.1472 -3.4929 2.6336 -1.98785e-016 -3.97569e-016 3.18055e-015 0.8229 -2.3 1.6571 -1.98785e-016 0 3.18055e-015 -9.412 3.9771 -0.7758 3.42485 1.36937 -0.0640303 -0.7531 -40.938 0 0.000136572 0.69354 0.00145564 1.77636e-015 -40.1986 -1.11022e-016 -3.42573 -2.06297 -0.0607933 8.88178e-016 -4.4182 9.239 -3.19502e-024 0 -1.48106e-024 9.4119 3.9773 -0.7758 -3.42498 1.36123 0.0639712 0.7532 -40.9383 2.22045e-016 -6.769e-005 0.712612 -0.0012277 8.88179e-016 -40.1986 0 3.42582 -2.07388 0.0612819 -8.88178e-016 -4.4182 9.239 2.55305e-023 0 -2.31416e-026 
-14.6369 35.42 -11.9266 64.5388 47.2292 -2.51455e-006 7.10543e-015 8.7983 -4.7612 -4.6098 4.77354 -2.69045 7.10543e-015 8.0291 0.4195 -9.03803 9.74393 -5.01283 -1.77636e-015 9.9351 -2.2114 -9.03805 9.74396 -5.01284 -2.66453e-015 22.3885 -0.4656 -11.1418 0.11054 -7.86318 -0.0001 12.643 3.4389 -0.679857 -1.01188 15.3463 2.2603 21.606 7.4023 -9.62518 8.97052 -44.3477 13.5163 -1.1332 -5.0146 65.0581 9.03103 52.2149 -0.0995 -28.05 -0.2431 -13.7168 -30.7198 -11.4939 0.0679 -23.3996 -0.1402 26.0061 -20.9495 4.67049 0.7932 -9.069 2.5189 9.63946e-007 -1.34262e-007 3.23373e-006 -0.8272 -3.3923 0.5977 1.59028e-015 0 1.59028e-015 -0.5649 -2.3158 0.4082 7.95139e-016 0 -0 0.9159 -9.2044 0.2193 9.63946e-007 -1.34262e-007 3.23373e-006 0.0117 -4.1944 -0.0248 -0.0128393 0.00232976 8.64794e-005 0.0071 -2.3249 -0.0142 6.26039e-007 1.11538e-007 2.46982e-006 0.6113 -8.7231 -2.0637 9.63946e-007 -1.34262e-007 3.23373e-006 -0.1927 -3.8059 -0.2383 -0.0160566 0.00299981 0.000856954 -0.1091 -2.1688 -0.1362 -1.29285e-005 -3.28373e-006 4.89079e-006 -0.6151 -8.0947 -3.5641 9.63946e-007 -1.34262e-007 3.23373e-006 -0.4882 -2.341 -0.6462 -0.0125644 0.00311515 0.00282888 -0.3575 -1.7167 -0.4742 5.76787e-007 -1.36977e-006 3.41178e-006 -1.42 -1.8761 1.4223 9.63946e-007 -1.34262e-007 3.23373e-006 -1.1471 -3.4929 2.6334 1.59028e-015 0 1.59028e-015 -0.823 -2.3 1.6571 7.95139e-016 0 -0 -2.2603 21.606 7.4023 -3.49411 3.95367 -4.4762 -13.5187 -1.1334 -5.0155 -84.0593 -4.84137 6.62882 0.0994 -28.0499 -0.2431 -27.9057 -25.4969 -17.8386 -0.0679 -23.3996 -0.1402 3.08185 -0.938351 5.75635 -0.7932 -9.0691 2.5189 -6.36111e-015 0 -3.57812e-015 0.8272 -3.3923 0.5977 -3.18055e-015 -1.59028e-015 7.95139e-016 0.565 -2.3158 0.4082 -3.31043e-032 -2.38542e-015 -7.95139e-016 -0.916 -9.2044 0.2193 -6.36111e-015 0 -3.57812e-015 -0.0117 -4.1944 -0.0248 0.0129449 0.00231171 -8.61243e-005 -0.0071 -2.3249 -0.0142 7.72434e-032 2.78299e-015 -1.59028e-015 -0.6113 -8.7231 -2.0637 -6.36111e-015 0 -3.57812e-015 0.1927 -3.8059 -0.2383 0.016306 0.00302639 -0.00087469 0.1091 -2.1688 -0.1362 6.36111e-015 -1.19271e-015 7.95139e-016 0.6151 -8.0947 -3.564 -6.36111e-015 0 -3.57812e-015 0.4882 -2.341 -0.6462 0.0146233 0.00369112 -0.0032678 0.3574 -1.7166 -0.4742 3.18055e-015 1.27222e-014 1.59028e-015 1.4199 -1.8761 1.4221 -6.36111e-015 0 -3.57812e-015 1.1472 -3.4929 2.6336 -3.18055e-015 -1.59028e-015 7.95139e-016 0.8229 -2.3 1.6571 -3.31043e-032 -2.38542e-015 -7.95139e-016 -9.412 3.9771 -0.7758 -17.4068 -30.8254 -19.5328 -0.7531 -40.938 3.55271e-015 3.99163 22.9139 -3.09803 -4.44089e-016 -40.1986 -5.32907e-015 6.79972 3.43011 -2.49771 -3.55271e-015 -4.4182 9.239 1.69492e-006 -3.66801e-006 3.33046e-006 9.4119 3.9773 -0.7758 -7.96775 -24.7336 26.4339 0.7532 -40.9383 1.77636e-015 2.92486 53.6873 -3.26537 -7.10543e-015 -40.1986 -1.77636e-015 5.33454 -3.64883 -3.26958 7.10543e-015 -4.4182 9.239 1.27222e-014 -6.36111e-015 -7.95139e-016 
-36.252 10.5762 -23.2624 118.364 86.618 8.68344e-005 0 8.7983 -4.7612 -7.81039 8.18959 -5.61154 0 8.0291 0.4195 -15.0167 17.0394 -10.2026 -3.55271e-015 9.9351 -2.2114 -15.0167 17.0394 -10.2026 0 22.3885 -0.4656 -20.3857 0.19323 -14.4212 -0.0001 12.643 3.4389 -0.848247 -1.69684 28.154 2.2603 21.606 7.4023 -11.3183 10.2012 -71.5917 13.5163 -1.1332 -5.0146 47.2875 3.3386 86.0655 -0.0995 -28.05 -0.2431 -29.9705 -55.8248 -26.4206 0.0679 -23.3996 -0.1402 49.2755 -37.4343 9.81857 0.7932 -9.069 2.5189 7.95139e-016 -2.02692e-006 -0 -0.8272 -3.3923 0.5977 3.65065e-007 6.30887e-007 -1.51739e-006 -0.5649 -2.3158 0.4082 1.12517e-022 2.02692e-006 -3.18055e-015 0.9159 -9.2044 0.2193 7.95139e-016 -2.02692e-006 -0 0.0117 -4.1944 -0.0248 -0.012841 0.00233141 8.44288e-005 0.0071 -2.3249 -0.0142 -3.64972e-007 7.36171e-008 1.51738e-006 0.6113 -8.7231 -2.0637 7.95139e-016 -2.02692e-006 -0 -0.1927 -3.8059 -0.2383 -0.0160544 0.0030005 0.000862129 -0.1091 -2.1688 -0.1362 -2.53689e-006 7.5061e-007 -1.42618e-006 -0.6151 -8.0947 -3.5641 7.95139e-016 -2.02692e-006 -0 -0.4882 -2.341 -0.6462 -0.0126019 0.00313009 0.00283353 -0.3575 -1.7167 -0.4742 -3.97348e-006 -1.19138e-006 -3.81329e-006 -1.42 -1.8761 1.4223 7.95139e-016 -2.02692e-006 -0 -1.1471 -3.4929 2.6334 3.65065e-007 6.30887e-007 -1.51739e-006 -0.823 -2.3 1.6571 1.12517e-022 2.02692e-006 -3.18055e-015 -2.2603 21.606 7.4023 -4.56256 6.78167 -14.1839 -13.5187 -1.1334 -5.0155 -81.053 -17.6479 20.4735 0.0994 -28.0499 -0.2431 -53.7184 -45.466 -33.8204 -0.0679 -23.3996 -0.1402 5.65527 -1.73933 10.5264 -0.7932 -9.06911 2.5189 -1.98785e-016 1.19271e-015 1.59028e-015 0.8272 -3.3923 0.5977 6.21202e-015 3.97569e-016 1.59028e-015 0.565 -2.3158 0.4082 9.44227e-015 1.98785e-015 3.18055e-015 -0.916 -9.20441 0.2193 -1.98785e-016 1.19271e-015 1.59028e-015 -0.0117 -4.1944 -0.0248 0.0129499 0.00231755 -8.69051e-005 -0.0071 -2.3249 -0.0142 5.36719e-015 -1.98785e-016 -3.18055e-015 -0.6113 -8.72311 -2.0637 -1.98785e-016 1.19271e-015 1.59028e-015 0.1927 -3.8059 -0.2383 0.0163142 0.00303186 -0.000872769 0.1091 -2.1688 -0.1362 -8.94531e-016 1.78906e-015 -1.59028e-015 0.6151 -8.09471 -3.564 -1.98785e-016 1.19271e-015 1.59028e-015 0.4882 -2.341 -0.6462 0.0145982 0.00368294 -0.00326574 0.3574 -1.7166 -0.4742 -2.5842e-015 5.96354e-016 -1.59028e-015 1.4199 -1.8761 1.4221 -1.98785e-016 1.19271e-015 1.59028e-015 1.1472 -3.4929 2.6336 6.21202e-015 3.97569e-016 1.59028e-015 0.8229 -2.3 1.6571 9.44227e-015 1.98785e-015 3.18055e-015 -9.412 3.9771 -0.7758 -59.6559 -49.2139 -51.3877 -0.7531 -40.938 0 10.6957 45.5438 -7.66759 0 -40.1986 0 15.3099 5.21063 -4.0331 0 -4.4182 9.239 6.07306e-006 1.4729e-006 -7.79304e-006 9.4119 3.9773 -0.7758 3.38277 -33.9046 56.1354 0.7532 -40.9383 -3.55271e-015 116.378 84.9198 -114.865 0 -40.1986 0 8.00466 -1.75826 -5.73249 -7.10543e-015 -4.4182 9.239 -4.77083e-015 -3.18055e-015 3.18055e-015 
-42.2938 2.95093 -25.6015 -48.1529 83.5148 -180 -3.55271e-015 8.7983 -4.7612 -8.51017 8.9418 -6.44024 3.55271e-015 8.0291 0.4195 -16.2662 18.7007 -11.6848 -3.55271e-015 9.9351 -2.2114 -16.2662 18.7006 -11.6848 -3.55271e-015 22.3885 -0.4656 -22.5861 0.192358 -16.0652 -0.0001 12.643 3.4389 -0.840665 -1.83061 31.364 2.2603 21.606 7.4023 -11.436 9.1899 -78.258 13.5163 -1.1332 -5.0146 43.0241 1.81646 94.4266 -0.0995 -28.05 -0.2431 -36.1015 -61.7409 -32.2717 0.0679 -23.3996 -0.1402 55.4833 -41.3496 11.3728 0.7932 -9.069 2.5189 -1.59028e-015 -9.54166e-015 6.36111e-015 -0.8272 -3.3923 0.5977 -6.59052e-006 3.75457e-006 -3.56366e-007 -0.5649 -2.3158 0.4082 -1.59028e-015 9.54166e-015 9.54166e-015 0.915899 -9.2044 0.2193 -1.59028e-015 -9.54166e-015 6.36111e-015 0.0117 -4.1944 -0.0248 -0.0128262 0.00232015 8.42118e-005 0.0071 -2.3249 -0.0142 1.59028e-015 -3.18055e-015 -3.18055e-015 0.6113 -8.7231 -2.0637 -1.59028e-015 -9.54166e-015 6.36111e-015 -0.1927 -3.8059 -0.2383 -0.0160612 0.00299507 0.000852298 -0.1091 -2.1688 -0.1362 -3.18055e-015 -6.36111e-015 -0 -0.6151 -8.0947 -3.5641 -1.59028e-015 -9.54166e-015 6.36111e-015 -0.4882 -2.341 -0.6462 -0.0125907 0.00312019 0.00282397 -0.3575 -1.7167 -0.4742 8.05545e-006 -4.84527e-007 7.31936e-006 -1.42 -1.8761 1.4223 -1.59028e-015 -9.54166e-015 6.36111e-015 -1.1471 -3.4929 2.6334 -6.59052e-006 3.75457e-006 -3.56366e-007 -0.823 -2.3 1.6571 -1.59028e-015 9.54166e-015 9.54166e-015 -2.2603 21.606 7.4023 -4.67932 7.4103 -16.6378 -13.5187 -1.1334 -5.0155 -80.3587 -20.8923 23.8565 0.0994 -28.0499 -0.2431 -60.7892 -50.1866 -38.1719 -0.0679 -23.3996 -0.1402 6.30067 -1.94298 11.7166 -0.7932 -9.0691 2.5189 7.95139e-016 -3.18055e-015 1.59028e-015 0.8272 -3.3923 0.5977 -2.38542e-015 -1.59028e-015 -1.59028e-015 0.565 -2.3158 0.4082 -2.38542e-015 -3.18055e-015 -1.59028e-015 -0.916 -9.2044 0.2193 7.95139e-016 -3.18055e-015 1.59028e-015 -0.0117 -4.1944 -0.0248 0.0129435 0.00231026 -8.6128e-005 -0.0071 -2.3249 -0.0142 6.16232e-015 -1.59028e-015 -0 -0.6113 -8.7231 -2.0637 7.95139e-016 -3.18055e-015 1.59028e-015 0.1927 -3.8059 -0.2383 0.0163277 0.00303143 -0.000874333 0.1091 -2.1688 -0.1362 7.95139e-016 -3.18055e-015 -1.59028e-015 0.6151 -8.0947 -3.564 7.95139e-016 -3.18055e-015 1.59028e-015 0.4882 -2.341 -0.6462 0.0145686 0.00367702 -0.00326153 0.3574 -1.7166 -0.4742 -2.14687e-014 0 1.59028e-015 1.4199 -1.8761 1.4221 7.95139e-016 -3.18055e-015 1.59028e-015 1.1472 -3.4929 2.6336 -2.38542e-015 -1.59028e-015 -1.59028e-015 0.8229 -2.3 1.6571 -2.38542e-015 -3.18055e-015 -1.59028e-015 -9.412 3.9771 -0.7758 -73.7149 -50.5541 -61.9344 -0.7531 -40.938 0 13.1378 50.9052 -9.50804 -8.88178e-016 -40.1986 0 17.348 5.65049 -4.36173 -3.55271e-015 -4.4182 9.239 7.4641e-006 1.15886e-005 1.94261e-005 9.4119 3.9773 -0.7758 7.13216 -33.459 63.8656 0.7532 -40.9383 7.10543e-015 156.903 77.0139 -154.547 0 -40.1986 0 8.68344 -1.80429 -6.22187 0 -4.4182 9.239 4.16372e-007 1.66701e-007 -8.5905e-008 
